<svg xmlns="http://www.w3.org/2000/svg" xmlns:xlink="http://www.w3.org/1999/xlink" contentStyleType="text/css" data-diagram-type="ACTIVITY" height="338px" preserveAspectRatio="none" style="width:582px;height:338px;background:#FFFFFF;" version="1.1" viewBox="0 0 582 338" width="582px" zoomAndPan="magnify"><defs/><g><ellipse cx="287.7236" cy="20" fill="#222222" rx="10" ry="10" style="stroke:#222222;stroke-width:1;"/><line style="stroke:#181818;stroke-width:1.5;" x1="64.1455" x2="478.0566" y1="50" y2="50"/><polygon fill="#F1F1F1" points="20,70,118.291,70,108.291,86.9844,118.291,103.9688,20,103.9688" style="stroke:#181818;stroke-width:0.5;"/><text fill="#000000" font-family="sans-serif" font-size="12" lengthAdjust="spacing" textLength="68.291" x="30" y="91.1387">product_uri</text><polygon fill="#F1F1F1" points="128.291,70,237.7383,70,227.7383,86.9844,237.7383,103.9688,128.291,103.9688" style="stroke:#181818;stroke-width:0.5;"/><text fill="#000000" font-family="sans-serif" font-size="12" lengthAdjust="spacing" textLength="79.4473" x="138.291" y="91.1387">collection_uri</text><polygon fill="#F1F1F1" points="265.7383,70,391.0352,70,381.0352,86.9844,391.0352,103.9688,265.7383,103.9688" style="stroke:#181818;stroke-width:0.5;"/><text fill="#000000" font-family="sans-serif" font-size="12" lengthAdjust="spacing" textLength="95.2969" x="275.7383" y="91.1387">water-threshold</text><polygon fill="#F1F1F1" points="405.8506,70,560.2627,70,550.2627,86.9844,560.2627,103.9688,405.8506,103.9688" style="stroke:#181818;stroke-width:0.5;"/><text fill="#000000" font-family="sans-serif" font-size="12" lengthAdjust="spacing" textLength="124.4121" x="415.8506" y="91.1387">brightness-threshold</text><line style="stroke:#181818;stroke-width:1.5;" x1="64.1455" x2="478.0566" y1="123.9688" y2="123.9688"/><rect fill="#F1F1F1" height="47.9375" rx="12.5" ry="12.5" style="stroke:#181818;stroke-width:0.5;" width="216.2539" x="179.5967" y="143.9688"/><text fill="#000000" font-family="sans-serif" font-size="12" lengthAdjust="spacing" textLength="90.2637" x="189.5967" y="165.1074">step: inference</text><text fill="#000000" font-family="sans-serif" font-size="12" lengthAdjust="spacing" textLength="196.2539" x="189.5967" y="179.0762">CommandLineTool: ml4floods-cli</text><line style="stroke:#181818;stroke-width:1.5;" x1="282.7236" x2="287.7236" y1="211.9063" y2="211.9063"/><polygon fill="#F1F1F1" points="222.1309,231.9063,343.3164,231.9063,353.3164,248.8906,343.3164,265.875,222.1309,265.875" style="stroke:#181818;stroke-width:0.5;"/><text fill="#000000" font-family="sans-serif" font-size="12" lengthAdjust="spacing" textLength="101.1855" x="232.1309" y="253.0449">flood-delineation</text><line style="stroke:#181818;stroke-width:1.5;" x1="282.7236" x2="287.7236" y1="285.875" y2="285.875"/><ellipse cx="287.7236" cy="316.875" fill="none" rx="11" ry="11" style="stroke:#222222;stroke-width:1;"/><ellipse cx="287.7236" cy="316.875" fill="#222222" rx="6" ry="6" style="stroke:#222222;stroke-width:1;"/><line style="stroke:#181818;stroke-width:1;" x1="64.1455" x2="64.1455" y1="51.5" y2="70"/><polygon fill="#181818" points="60.1455,60,64.1455,70,68.1455,60,64.1455,64" style="stroke:#181818;stroke-width:1;"/><line style="stroke:#181818;stroke-width:1;" x1="178.0146" x2="178.0146" y1="51.5" y2="70"/><polygon fill="#181818" points="174.0146,60,178.0146,70,182.0146,60,178.0146,64" style="stroke:#181818;stroke-width:1;"/><line style="stroke:#181818;stroke-width:1;" x1="323.3867" x2="323.3867" y1="51.5" y2="70"/><polygon fill="#181818" points="319.3867,60,323.3867,70,327.3867,60,323.3867,64" style="stroke:#181818;stroke-width:1;"/><line style="stroke:#181818;stroke-width:1;" x1="478.0566" x2="478.0566" y1="51.5" y2="70"/><polygon fill="#181818" points="474.0566,60,478.0566,70,482.0566,60,478.0566,64" style="stroke:#181818;stroke-width:1;"/><line style="stroke:#181818;stroke-width:1;" x1="64.1455" x2="64.1455" y1="103.9688" y2="123.9688"/><polygon fill="#181818" points="60.1455,113.9688,64.1455,123.9688,68.1455,113.9688,64.1455,117.9688" style="stroke:#181818;stroke-width:1;"/><line style="stroke:#181818;stroke-width:1;" x1="178.0146" x2="178.0146" y1="103.9688" y2="123.9688"/><polygon fill="#181818" points="174.0146,113.9688,178.0146,123.9688,182.0146,113.9688,178.0146,117.9688" style="stroke:#181818;stroke-width:1;"/><line style="stroke:#181818;stroke-width:1;" x1="323.3867" x2="323.3867" y1="103.9688" y2="123.9688"/><polygon fill="#181818" points="319.3867,113.9688,323.3867,123.9688,327.3867,113.9688,323.3867,117.9688" style="stroke:#181818;stroke-width:1;"/><line style="stroke:#181818;stroke-width:1;" x1="478.0566" x2="478.0566" y1="103.9688" y2="123.9688"/><polygon fill="#181818" points="474.0566,113.9688,478.0566,123.9688,482.0566,113.9688,478.0566,117.9688" style="stroke:#181818;stroke-width:1;"/><line style="stroke:#181818;stroke-width:1;" x1="287.7236" x2="287.7236" y1="30" y2="50"/><polygon fill="#181818" points="283.7236,40,287.7236,50,291.7236,40,287.7236,44" style="stroke:#181818;stroke-width:1;"/><line style="stroke:#181818;stroke-width:1;" x1="287.7236" x2="287.7236" y1="125.4688" y2="143.9688"/><polygon fill="#181818" points="283.7236,133.9688,287.7236,143.9688,291.7236,133.9688,287.7236,137.9688" style="stroke:#181818;stroke-width:1;"/><line style="stroke:#181818;stroke-width:1;" x1="282.7236" x2="282.7236" y1="213.4063" y2="231.9063"/><polygon fill="#181818" points="278.7236,221.9063,282.7236,231.9063,286.7236,221.9063,282.7236,225.9063" style="stroke:#181818;stroke-width:1;"/><line style="stroke:#181818;stroke-width:1;" x1="282.7236" x2="282.7236" y1="265.875" y2="285.875"/><polygon fill="#181818" points="278.7236,275.875,282.7236,285.875,286.7236,275.875,282.7236,279.875" style="stroke:#181818;stroke-width:1;"/><line style="stroke:#181818;stroke-width:1;" x1="287.7236" x2="287.7236" y1="191.9063" y2="211.9063"/><polygon fill="#181818" points="283.7236,201.9063,287.7236,211.9063,291.7236,201.9063,287.7236,205.9063" style="stroke:#181818;stroke-width:1;"/><line style="stroke:#181818;stroke-width:1;" x1="287.7236" x2="287.7236" y1="287.375" y2="305.875"/><polygon fill="#181818" points="283.7236,295.875,287.7236,305.875,291.7236,295.875,287.7236,299.875" style="stroke:#181818;stroke-width:1;"/><!--SRC=[ZP0nZy8m38Nt_0flJ2sXG8U0MEv6HlPJI4mRAOcZn0NTlx-sdEuOAjrvi3ryptf-wvM05RmxtMKTeCE8MJDQk7w2UVWc3S73NTRRjfOJo2vWOHsIWaOsRILtbTnSDdkrRvNSrgsSgBKG8vDPFAiaxrZ0M7DJAPCT37yCsHtWU7Gn3NmwFJ7GdNRn1JRaFHfs5F_7FqRtkU8-O-d9sxy5r-owdYEMigp2QE7bW-y-ZvyZyw8AunYBYpVC60sADmf1Htjs4Iz4Na7mkvidigKotXr-bKiXpM1bqOzgFRq_UQA1bqrDWLFw0W00]--></g></svg>