<svg xmlns="http://www.w3.org/2000/svg" xmlns:xlink="http://www.w3.org/1999/xlink" contentStyleType="text/css" data-diagram-type="DESCRIPTION" height="429px" preserveAspectRatio="none" style="width:984px;height:429px;background:#FFFFFF;" version="1.1" viewBox="0 0 984 429" width="984px" zoomAndPan="magnify"><defs/><g><!--cluster Workflow 'ml4floods'--><g class="cluster" data-entity="Workflow .ml4floods." data-source-line="12" data-uid="ent0002" id="cluster_Workflow .ml4floods."><polygon fill="none" points="16,16,26,6,967,6,967,402,957,412,16,412,16,16" style="stroke:#181818;stroke-width:1;"/><line style="stroke:#181818;stroke-width:1;" x1="957" x2="967" y1="16" y2="6"/><line style="stroke:#181818;stroke-width:1;" x1="16" x2="957" y1="16" y2="16"/><line style="stroke:#181818;stroke-width:1;" x1="957" x2="957" y1="16" y2="412"/><text fill="#000000" font-family="sans-serif" font-size="14" font-weight="bold" lengthAdjust="spacing" textLength="165.7715" x="404.6143" y="31.9951">Workflow 'ml4floods'</text></g><!--cluster ml4floods--><g class="cluster" data-entity="ml4floods" data-source-line="13" data-uid="ent0003" id="cluster_ml4floods"><rect fill="none" height="197" rx="2.5" ry="2.5" style="stroke:#181818;stroke-width:1;" width="365" x="94.5" y="72"/><rect fill="none" height="10" style="stroke:#181818;stroke-width:1;" width="15" x="439.5" y="77"/><rect fill="none" height="2" style="stroke:#181818;stroke-width:1;" width="4" x="437.5" y="79"/><rect fill="none" height="2" style="stroke:#181818;stroke-width:1;" width="4" x="437.5" y="83"/><text fill="#000000" font-family="sans-serif" font-size="14" font-weight="bold" lengthAdjust="spacing" textLength="77.6084" x="238.1958" y="97.9951">ml4floods</text></g><!--cluster ml4floods_inference--><g class="cluster" data-entity="ml4floods_inference" data-source-line="29" data-uid="ent0009" id="cluster_ml4floods_inference"><rect fill="none" height="202" rx="2.5" ry="2.5" style="stroke:#181818;stroke-width:1;" width="430.5" x="494" y="168"/><path d="M578.5117,168 L578.5117,177.2969 L568.5117,187.2969 L494,187.2969" fill="none" style="stroke:#181818;stroke-width:1;"/><text fill="#000000" font-family="sans-serif" font-size="14" font-weight="bold" lengthAdjust="spacing" textLength="74.5117" x="497" y="181.9951">inference</text></g><g class="entity" data-entity="ml4floods_product_uri" data-source-line="15" data-uid="ent0004" id="entity_ml4floods_product_uri"><text fill="#000000" font-family="sans-serif" font-size="14" lengthAdjust="spacing" textLength="79.6729" x="187.6636" y="50.6982">product_uri</text><rect fill="#F1F1F1" height="12" style="stroke:#181818;stroke-width:1.5;" width="12" x="221.5" y="66"/></g><g class="entity" data-entity="ml4floods_collection_uri" data-source-line="17" data-uid="ent0005" id="entity_ml4floods_collection_uri"><text fill="#000000" font-family="sans-serif" font-size="14" lengthAdjust="spacing" textLength="92.6885" x="279.6558" y="50.6982">collection_uri</text><rect fill="#F1F1F1" height="12" style="stroke:#181818;stroke-width:1.5;" width="12" x="320" y="66"/></g><g class="entity" data-entity="ml4floods_water_threshold" data-source-line="19" data-uid="ent0006" id="entity_ml4floods_water_threshold"><text fill="#000000" font-family="sans-serif" font-size="14" lengthAdjust="spacing" textLength="111.1797" x="385.9102" y="50.6982">water-threshold</text><rect fill="#F1F1F1" height="12" style="stroke:#181818;stroke-width:1.5;" width="12" x="435.5" y="66"/></g><g class="entity" data-entity="ml4floods_brightness_threshold" data-source-line="21" data-uid="ent0007" id="entity_ml4floods_brightness_threshold"><text fill="#000000" font-family="sans-serif" font-size="14" lengthAdjust="spacing" textLength="145.1475" x="39.9263" y="50.6982">brightness-threshold</text><rect fill="#F1F1F1" height="12" style="stroke:#181818;stroke-width:1.5;" width="12" x="106.5" y="66"/></g><g class="entity" data-entity="ml4floods_flood_delineation" data-source-line="24" data-uid="ent0008" id="entity_ml4floods_flood_delineation"><text fill="#000000" font-family="sans-serif" font-size="14" lengthAdjust="spacing" textLength="118.0498" x="294.9751" y="287.9951">flood-delineation</text><rect fill="#F1F1F1" height="12" style="stroke:#181818;stroke-width:1.5;" width="12" x="348" y="263"/></g><g class="entity" data-entity="ml4floods_inference_product_uri" data-source-line="31" data-uid="ent0010" id="entity_ml4floods_inference_product_uri"><text fill="#000000" font-family="sans-serif" font-size="14" lengthAdjust="spacing" textLength="79.6729" x="651.6636" y="146.6982">product_uri</text><rect fill="#F1F1F1" height="12" style="stroke:#181818;stroke-width:1.5;" width="12" x="685.5" y="162"/></g><g class="entity" data-entity="ml4floods_inference_collection_uri" data-source-line="39" data-uid="ent0012" id="entity_ml4floods_inference_collection_uri"><text fill="#000000" font-family="sans-serif" font-size="14" lengthAdjust="spacing" textLength="92.6885" x="743.6558" y="146.6982">collection_uri</text><rect fill="#F1F1F1" height="12" style="stroke:#181818;stroke-width:1.5;" width="12" x="784" y="162"/></g><g class="entity" data-entity="ml4floods_inference_water_threshold" data-source-line="47" data-uid="ent0014" id="entity_ml4floods_inference_water_threshold"><text fill="#000000" font-family="sans-serif" font-size="14" lengthAdjust="spacing" textLength="113.1279" x="849.936" y="146.6982">water_threshold</text><rect fill="#F1F1F1" height="12" style="stroke:#181818;stroke-width:1.5;" width="12" x="900.5" y="162"/></g><g class="entity" data-entity="ml4floods_inference_brightness_threshold" data-source-line="55" data-uid="ent0016" id="entity_ml4floods_inference_brightness_threshold"><text fill="#000000" font-family="sans-serif" font-size="14" lengthAdjust="spacing" textLength="147.0957" x="502.4521" y="146.6982">brightness_threshold</text><rect fill="#F1F1F1" height="12" style="stroke:#181818;stroke-width:1.5;" width="12" x="570" y="162"/></g><g class="entity" data-entity="ml4floods_inference_flood_delineation" data-source-line="65" data-uid="ent0018" id="entity_ml4floods_inference_flood_delineation"><text fill="#000000" font-family="sans-serif" font-size="14" lengthAdjust="spacing" textLength="118.0498" x="582.9751" y="388.9951">flood-delineation</text><rect fill="#F1F1F1" height="12" style="stroke:#181818;stroke-width:1.5;" width="12" x="636" y="364"/></g><!--entity ml4floods_cli--><g class="entity" data-entity="ml4floods_cli" data-source-line="68" data-uid="ent0019" id="entity_ml4floods_cli"><rect fill="#F1F1F1" height="46.2969" rx="2.5" ry="2.5" style="stroke:#181818;stroke-width:0.5;" width="129.0928" x="510.5" y="246"/><rect fill="#F1F1F1" height="10" style="stroke:#181818;stroke-width:0.5;" width="15" x="619.5928" y="251"/><rect fill="#F1F1F1" height="2" style="stroke:#181818;stroke-width:0.5;" width="4" x="617.5928" y="253"/><rect fill="#F1F1F1" height="2" style="stroke:#181818;stroke-width:0.5;" width="4" x="617.5928" y="257"/><text fill="#000000" font-family="sans-serif" font-size="14" lengthAdjust="spacing" textLength="89.0928" x="525.5" y="278.9951">ml4floods-cli</text></g><!--link ml4floods_product_uri to ml4floods_inference_product_uri--><g class="link" data-entity-1="ml4floods_product_uri" data-entity-2="ml4floods_inference_product_uri" data-source-line="35" data-uid="lnk11" id="link_ml4floods_product_uri_ml4floods_inference_product_uri"><path d="M240.5,72.14 C240.5,74.95 240.5,120 240.5,120 C240.5,120 688,120 688,120 C688,120 688,142.71 688,155.72" fill="none" id="ml4floods_product_uri-to-ml4floods_inference_product_uri" style="stroke:#181818;stroke-width:1;stroke-dasharray:7,7;"/><polygon fill="#181818" points="688,161.72,692,152.72,688,156.72,684,152.72,688,161.72" style="stroke:#181818;stroke-width:1;"/></g><!--link ml4floods_collection_uri to ml4floods_inference_collection_uri--><g class="link" data-entity-1="ml4floods_collection_uri" data-entity-2="ml4floods_inference_collection_uri" data-source-line="43" data-uid="lnk13" id="link_ml4floods_collection_uri_ml4floods_inference_collection_uri"><path d="M317.67,72.09 C317.67,74.03 317.67,105 317.67,105 C317.67,105 785,105 785,105 C785,105 785,139.79 785,155.73" fill="none" id="ml4floods_collection_uri-to-ml4floods_inference_collection_uri" style="stroke:#181818;stroke-width:1;stroke-dasharray:7,7;"/><polygon fill="#181818" points="785,161.73,789,152.73,785,156.73,781,152.73,785,161.73" style="stroke:#181818;stroke-width:1;"/></g><!--link ml4floods_water_threshold to ml4floods_inference_water_threshold--><g class="link" data-entity-1="ml4floods_water_threshold" data-entity-2="ml4floods_inference_water_threshold" data-source-line="51" data-uid="lnk15" id="link_ml4floods_water_threshold_ml4floods_inference_water_threshold"><path d="M447.78,72 C500.68,72 899,72 899,72 C899,72 899,159.02 899,161.93" fill="none" id="ml4floods_water_threshold-to-ml4floods_inference_water_threshold" style="stroke:#181818;stroke-width:1;stroke-dasharray:7,7;"/><polygon fill="#181818" points="899,167.93,903,158.93,899,162.93,895,158.93,899,167.93" style="stroke:#181818;stroke-width:1;"/></g><!--link ml4floods_brightness_threshold to ml4floods_inference_brightness_threshold--><g class="link" data-entity-1="ml4floods_brightness_threshold" data-entity-2="ml4floods_inference_brightness_threshold" data-source-line="59" data-uid="lnk17" id="link_ml4floods_brightness_threshold_ml4floods_inference_brightness_threshold"><path d="M155.25,72.06 C155.25,74.57 155.25,155 155.25,155 C155.25,155 563.45,155 569.92,155" fill="none" id="ml4floods_brightness_threshold-to-ml4floods_inference_brightness_threshold" style="stroke:#181818;stroke-width:1;stroke-dasharray:7,7;"/><polygon fill="#181818" points="575.92,155,566.92,151,570.92,155,566.92,159,575.92,155" style="stroke:#181818;stroke-width:1;"/></g><!--reverse link ml4floods_flood_delineation to ml4floods_inference_flood_delineation--><g class="link" data-entity-1="ml4floods_flood_delineation" data-entity-2="ml4floods_inference_flood_delineation" data-source-line="76" data-uid="lnk21" id="link_ml4floods_flood_delineation_ml4floods_inference_flood_delineation"><path d="M346,275.07 C346,278.13 346,370 346,370 C346,370 593.31,370 635.82,370" fill="none" id="ml4floods_flood_delineation-backto-ml4floods_inference_flood_delineation" style="stroke:#181818;stroke-width:1;stroke-dasharray:7,7;"/><polygon fill="#181818" points="346,269.07,342,278.07,346,274.07,350,278.07,346,269.07" style="stroke:#181818;stroke-width:1;"/></g><!--SRC=[dPJ1ReCm38RlF8N5XHCCQDLgFUoqHvYq8wBWbgWXYK8OggQ- -mBQe86063aG4jkVyyT9NZm7F7WdwLMc9LoHeKmLvd2-GzRGMDGbXQymsEs3i7LKfCHAfQKuGHp61p_S-L7y4HrEqUifEWR7UA-zNXp7gMw4YRHbKi9GtGK2bwhWJjiOpn7SJovl5yeRy4gwrpyyhpmNlXtGBUEbu0oP0hStkf1Mq8z-7RjFsuJ64mQka3olCvNKafW1oPF57ffnIZ5JX3DBj6cq0ngzTT9NXSIgu3GV4JfhqbljYBCarq8nhAfPpk1YWnb4NkiDxCBy7Dj2fAs04Q_haYVxm7deOhNzHHTILuom2qfa6Ou8_Vp_YzA7JifZW2O3Oy9QOmXoth3WRNKo0xdXX0nqordPfCRaB0gQIRb2q-XOpego7TzDgaQWHLbpILVeibsJMN6pTsgJGXjjKUPYUelMZJTzI3XpvtkaxVtrCpfv52dvUoSUeqMPor-r1WXgOMpGnEC7]--></g></svg>